<?xml version="1.0" encoding="UTF-8"?>
<svg version="1.1" xmlns="http://www.w3.org/2000/svg" width="346" height="302">
<path d="M0 0 C114.18 0 228.36 0 346 0 C346 99.66 346 199.32 346 302 C231.82 302 117.64 302 0 302 C0 202.34 0 102.68 0 0 Z " fill="#D9F0FE" transform="translate(0,0)"/>
<path d="M0 0 C16.83 0.33 33.66 0.66 51 1 C51 27.43325564 51 27.43325564 50.5625 38.05859375 C50.51810791 39.22463638 50.47371582 40.39067902 50.42797852 41.59205627 C50.28942349 45.20737766 50.14486544 48.82242661 50 52.4375 C49.9032414 54.93422915 49.80688516 57.43097393 49.7109375 59.92773438 C49.47857589 65.95201016 49.24132745 71.97607704 49 78 C50.32 78 51.64 78 53 78 C53.25724854 77.16710449 53.51449707 76.33420898 53.77954102 75.47607422 C55.12298049 71.6497307 56.77498928 68.03280135 58.52734375 64.3828125 C58.872314 63.65668762 59.21728424 62.93056274 59.57270813 62.18243408 C60.3100091 60.63108821 61.04879389 59.08044681 61.78894043 57.53045654 C63.72448065 53.47680708 65.64933469 49.41809285 67.57421875 45.359375 C67.95595245 44.55498993 68.33768616 43.75060486 68.73098755 42.92184448 C72.40064081 35.17784981 75.97944412 27.39421603 79.51147461 19.58642578 C82.20478631 13.65242168 85.04652143 7.80892282 88 2 C92.27077656 1.94205188 96.54145236 1.90642126 100.8125 1.875 C102.02744141 1.85824219 103.24238281 1.84148438 104.49414062 1.82421875 C105.65751953 1.81777344 106.82089844 1.81132813 108.01953125 1.8046875 C109.62985229 1.78897705 109.62985229 1.78897705 111.27270508 1.77294922 C114 2 114 2 117 4 C116.42657574 7.39396901 115.59614199 10.17475459 114.04150391 13.24169922 C113.43364548 14.45229507 113.43364548 14.45229507 112.81350708 15.68734741 C112.37231537 16.55106964 111.93112366 17.41479187 111.4765625 18.3046875 C111.01901581 19.21280182 110.56146912 20.12091614 110.09005737 21.05654907 C109.11231234 22.99593734 108.13193598 24.93400086 107.14916992 26.87084961 C104.61081512 31.87396603 102.09130293 36.88655527 99.5703125 41.8984375 C99.07875671 42.87451965 98.58720093 43.85060181 98.08074951 44.85626221 C94.02896532 52.91270287 90.07964372 61.01136434 86.24365234 69.1730957 C84.55698924 72.76087615 82.85818608 76.32202688 80.984375 79.81640625 C80.12585938 81.42322266 80.12585938 81.42322266 79.25 83.0625 C78.78078125 83.89910156 78.3115625 84.73570313 77.828125 85.59765625 C75.70522025 91.75608276 79.63248746 98.8812373 81.7890625 104.671875 C82.17057465 105.70830139 82.55208679 106.74472778 82.94515991 107.81256104 C83.75474454 110.00893091 84.56686862 112.20436619 85.38134766 114.39892578 C86.60459089 117.6950068 87.82061549 120.99367248 89.03515625 124.29296875 C92.83651258 134.59783223 96.67292122 144.8858348 100.71353149 155.09967041 C102.64650372 160.00311106 104.41450151 164.95233046 106.125 169.9375 C108.42334379 176.62448896 110.83402487 183.2603636 113.33203125 189.875 C113.77443146 191.05008873 113.77443146 191.05008873 114.22576904 192.24891663 C116.02652416 197.03118747 116.02652416 197.03118747 117.84405518 201.80709839 C118.70396796 204.05495869 119.5538998 206.30638435 120.40234375 208.55859375 C120.66449173 209.23490845 120.92663971 209.91122314 121.19673157 210.60803223 C122.55745971 214.24831334 123.11438431 217.13846508 123 221 C115.89755001 221.02526787 108.79511152 221.04283201 101.69262695 221.05493164 C99.27432828 221.05997349 96.85603267 221.06680678 94.43774414 221.07543945 C90.97020717 221.08751157 87.50271034 221.09322963 84.03515625 221.09765625 C82.94662857 221.10281754 81.85810089 221.10797882 80.73658752 221.11329651 C79.23514442 221.11340981 79.23514442 221.11340981 77.70336914 221.11352539 C76.37433311 221.11685631 76.37433311 221.11685631 75.01844788 221.12025452 C73 221 73 221 72 220 C71.62523502 217.52010985 71.29424021 215.05204807 71 212.5625 C70.55638533 207.63342275 70.55638533 207.63342275 69 203 C68.75981343 201.65563992 68.56160017 200.30362272 68.38671875 198.94921875 C68.27545654 198.11769287 68.16419434 197.28616699 68.04956055 196.42944336 C67.93008057 195.52460205 67.81060059 194.61976074 67.6875 193.6875 C66.70817223 186.56000206 65.58752345 179.49424904 64.1875 172.4375 C62.34922025 163.12158153 60.73230203 153.77319443 59.16397095 144.40872192 C58.88911516 142.76795544 58.61306291 141.12738891 58.33578491 139.48703003 C57.94426528 137.16771173 57.55733352 134.84767618 57.171875 132.52734375 C57.05332657 131.8271814 56.93477814 131.12701904 56.81263733 130.40563965 C56.28541391 127.19675038 56 124.26718749 56 121 C53.69 121 51.38 121 49 121 C49.24072751 128.79028199 49.48405372 136.5804784 49.73049068 144.37058163 C49.84490518 147.98977478 49.95850063 151.60898937 50.07006836 155.22827148 C50.70469488 175.9342715 50.70469488 175.9342715 51.80151367 196.61987305 C52.09164618 201.56069056 52.18374839 206.48913182 52.1875 211.4375 C52.19974609 212.34564453 52.21199219 213.25378906 52.22460938 214.18945312 C52.22654297 215.05376953 52.22847656 215.91808594 52.23046875 216.80859375 C52.23457764 217.56970459 52.23868652 218.33081543 52.24291992 219.11499023 C52 221 52 221 50 223 C47.13647461 223.21289062 47.13647461 223.21289062 43.46484375 223.15625 C42.80298569 223.14815308 42.14112762 223.14005615 41.45921326 223.13171387 C39.30568575 223.10068335 37.15310264 223.05262701 35 223 C34.28644348 222.98356445 33.57288696 222.96712891 32.83770752 222.95019531 C27.74499808 222.82824525 22.65387004 222.66785355 17.5625 222.5 C16.0410225 222.45160633 14.51953812 222.40342827 12.99804688 222.35546875 C9.33194907 222.23945122 5.66595148 222.12056309 2 222 C-2.68478244 212.2045458 -3.29407569 202.67363125 -3.24291992 191.92211914 C-3.24481827 190.65085678 -3.24671661 189.37959442 -3.24867249 188.06980896 C-3.25348148 184.61104629 -3.24591424 181.15241451 -3.23571944 177.69366765 C-3.22686901 174.05533729 -3.22869776 170.4170102 -3.2290802 166.77867126 C-3.22814639 160.67021525 -3.21950206 154.56180919 -3.20581055 148.45336914 C-3.19009518 141.41652134 -3.18481241 134.37972818 -3.1855461 127.3428641 C-3.18622458 119.81605102 -3.17926628 112.28925867 -3.1700995 104.76245189 C-3.16798029 102.60938038 -3.16725997 100.45631227 -3.16686058 98.30323982 C-3.16565806 94.27122612 -3.15590135 90.23927524 -3.14526367 86.20727539 C-3.14571686 85.02823639 -3.14617004 83.84919739 -3.14663696 82.63442993 C-3.12308747 76.49807586 -2.84898248 70.47476209 -2.22977161 64.36965847 C-1.95297323 61.51500801 -1.84910852 58.68073951 -1.81054688 55.81347656 C-1.79382935 54.73575989 -1.77711182 53.65804321 -1.7598877 52.54766846 C-1.74631226 51.42334412 -1.73273682 50.29901978 -1.71875 49.140625 C-1.70034058 47.95200867 -1.68193115 46.76339233 -1.66296387 45.53875732 C-1.58497262 40.50004256 -1.51653267 35.46121098 -1.44775391 30.42236328 C-1.39586852 26.72422043 -1.33871097 23.02618476 -1.28125 19.328125 C-1.26767456 18.19570374 -1.25409912 17.06328247 -1.2401123 15.89654541 C-1.22339478 14.83143738 -1.20667725 13.76632935 -1.18945312 12.66894531 C-1.17692505 11.74059875 -1.16439697 10.8122522 -1.15148926 9.85577393 C-0.97627826 6.55281369 -0.46776587 3.27436106 0 0 Z " fill="#FEC8DC" transform="translate(48,39)"/>
<path d="M0 0 C16.83 0.33 33.66 0.66 51 1 C51 26 51 26 50 38 C49.86496705 41.3107961 49.75166612 44.61034607 49.68359375 47.921875 C49.66281265 48.79273743 49.64203156 49.66359985 49.62062073 50.56085205 C49.55623811 53.29050301 49.49676912 56.02023374 49.4375 58.75 C49.39420837 60.62240345 49.3505911 62.4947994 49.30664062 64.3671875 C49.2006745 68.91138063 49.09910884 73.45565235 49 78 C52.83123116 76.54169656 53.92193177 74.84478981 55.62890625 71.1796875 C56.10102539 70.18122803 56.57314453 69.18276855 57.05957031 68.15405273 C57.55553711 67.07196533 58.05150391 65.98987793 58.5625 64.875 C59.08553711 63.7600415 59.60857422 62.64508301 60.14746094 61.49633789 C61.78025673 58.00440602 63.39341925 54.50406299 65 51 C65.4954834 49.91992676 65.9909668 48.83985352 66.50146484 47.72705078 C68.37883689 43.62849117 70.25379884 39.52887721 72.11962891 35.42504883 C75.33456998 28.37483213 78.71093198 21.429867 82.24609375 14.53515625 C84.28943042 10.41662689 86.1327562 6.20129854 88 2 C96.91 2 105.82 2 115 2 C117 6 117 6 116.3918457 8.21630859 C115.99054443 9.01891113 115.58924316 9.82151367 115.17578125 10.6484375 C114.72960449 11.56012695 114.28342773 12.47181641 113.82373047 13.41113281 C113.07567139 14.87824707 113.07567139 14.87824707 112.3125 16.375 C111.55670654 17.90398926 111.55670654 17.90398926 110.78564453 19.46386719 C109.20601024 22.65063329 107.60478641 25.82583772 106 29 C105.04194662 30.91355109 104.08487553 32.82759438 103.12890625 34.7421875 C101.75375775 37.49442406 100.37710286 40.24582105 98.99414062 42.99414062 C95.63166325 49.6854225 92.39243381 56.42736327 89.22021484 63.21069336 C87.43622906 67.01391136 85.61585955 70.78896141 83.69921875 74.52734375 C83.32949951 75.25002441 82.95978027 75.97270508 82.57885742 76.71728516 C81.88449092 78.06579236 81.18334949 79.41084364 80.47387695 80.75146484 C78.23092495 85.10724161 76.22803878 89.00902428 77.50390625 93.95239258 C78.34079198 96.33939454 79.27887764 98.6643608 80.25 101 C81.00747226 102.90274614 81.76254758 104.80644768 82.515625 106.7109375 C82.92232422 107.73155273 83.32902344 108.75216797 83.74804688 109.80371094 C85.9301456 115.37470089 87.95692014 121.0018758 90 126.625 C90.93263206 129.1787429 91.86594701 131.73222015 92.80078125 134.28515625 C93.04772232 134.95955246 93.29466339 135.63394867 93.54908752 136.32878113 C97.0646783 145.9179915 100.62704975 155.48987862 104.1875 165.0625 C104.5172583 165.95003967 104.8470166 166.83757935 105.18676758 167.75201416 C109.48142305 179.30909157 113.82999221 190.84434183 118.23168945 202.36108398 C118.6758873 203.52883865 118.6758873 203.52883865 119.12905884 204.72018433 C119.7099943 206.24086772 120.29706687 207.75922068 120.89022827 209.275177 C122.33582067 213.01101166 123.3785566 215.96206292 123 220 C106.34963068 221.29502872 89.68704397 221.09985802 73 221 C72.83564453 220.16082031 72.83564453 220.16082031 72.66796875 219.3046875 C71.6784895 214.30097945 70.62943275 209.31611538 69.52734375 204.3359375 C68.05001813 197.4714276 66.90910448 190.581924 65.86569214 183.63949585 C65.33934658 180.14230446 64.79711819 176.64755551 64.2578125 173.15234375 C64.09722603 172.10790855 64.09722603 172.10790855 63.93339539 171.04237366 C61.40218368 154.59173649 58.60310683 138.25231167 55 122 C52.03 121.505 52.03 121.505 49 121 C49.38497057 143.12641815 49.8845998 165.21765213 51.20007324 187.31048584 C51.88630823 198.88425818 52.26521261 210.40431513 52 222 C49.07972881 222.97342373 47.37082553 223.09473842 44.3449707 223.02172852 C43.40422195 223.00163223 42.46347321 222.98153595 41.49421692 222.96083069 C40.48163315 222.93379562 39.46904938 222.90676056 38.42578125 222.87890625 C37.38681198 222.85529526 36.34784271 222.83168427 35.27738953 222.80735779 C31.95562067 222.73072211 28.63408498 222.64669703 25.3125 222.5625 C23.06186041 222.50927924 20.8112094 222.45653884 18.56054688 222.40429688 C13.04021999 222.27510707 7.5200666 222.13984824 2 222 C-1.7675452 214.68552772 -2.32060029 208.25071341 -2.4140625 200.1328125 C-2.43351929 199.0549498 -2.45297607 197.9770871 -2.47302246 196.86656189 C-2.53405658 193.28612112 -2.58023304 189.70567879 -2.625 186.125 C-2.66246335 183.58520309 -2.7000638 181.04540821 -2.73779297 178.50561523 C-3.5653424 118.97681059 -3.40367019 59.45077264 0 0 Z " fill="#FEC8DC" transform="translate(180,39)"/>
</svg>
